<svg width="24" height="24" viewBox="0 0 24 24" fill="none" xmlns="http://www.w3.org/2000/svg">
<path d="M19 2.9668H5C3.89543 2.9668 3 3.8522 3 4.9444V18.7876C3 19.8798 3.89543 20.7652 5 20.7652H19C20.1046 20.7652 21 19.8798 21 18.7876V4.9444C21 3.8522 20.1046 2.9668 19 2.9668Z" stroke="#151515" stroke-width="2" stroke-linecap="round" stroke-linejoin="round"/>
<path d="M21 14.8317L16 9.8877L5 20.7645" stroke="#151515" stroke-width="2" stroke-linecap="round" stroke-linejoin="round"/>
<path d="M8.5 9.88828C9.32843 9.88828 10 9.22422 10 8.40508C10 7.58593 9.32843 6.92188 8.5 6.92188C7.67157 6.92188 7 7.58593 7 8.40508C7 9.22422 7.67157 9.88828 8.5 9.88828Z" stroke="#151515" stroke-width="2" stroke-linecap="round" stroke-linejoin="round"/>
</svg>
